<svg width="84" height="67" viewBox="0 0 84 67" fill="none" xmlns="http://www.w3.org/2000/svg">
<path d="M84 26.3846H74.8054C74.2778 26.3846 73.7595 26.2455 73.3029 25.9812L41.8098 7.75791C40.986 7.28124 39.985 7.22373 39.112 7.60293L15.9495 17.6645C15.3343 17.9317 14.8264 18.3974 14.5069 18.9872L1.39896 43.1865C0.316221 45.1854 1.76353 47.6154 4.03684 47.6154H7.71012C8.53359 47.6154 9.32087 47.2769 9.88738 46.6792L25.6126 30.09C26.1791 29.4923 26.9664 29.1538 27.7899 29.1538H42.2571C43.3347 29.1538 44.3295 29.7318 44.8633 30.6679L47.9692 36.1153C48.5891 37.2025 48.469 38.5603 47.6678 39.5218L44.6388 43.1565C44.2241 43.6542 43.6595 44.0042 43.0293 44.1543L29.2632 47.4336C28.7628 47.5528 28.3015 47.7986 27.9235 48.1475L20.2338 55.2457C19.0049 56.3801 18.9409 58.3002 20.0914 59.514L20.5202 59.9664C21.1403 60.6205 22.0215 60.9612 22.9202 60.8943L52.2294 58.7125C52.4094 58.699 52.5879 58.6694 52.7626 58.6239L71.6283 53.7122C71.8751 53.6479 72.1291 53.6154 72.3841 53.6154H82.5" stroke="black" stroke-width="2"/>
<path d="M57.9349 2.34522L63.0227 7.11498C63.8356 7.8771 63.8689 9.15662 63.0967 9.96L62.7346 10.3368L60.6553 12.5L15.2214 59.7696C15.0747 59.9222 14.9048 60.0506 14.7178 60.1499L4.84497 65.3949C3.09645 66.3238 1.20575 64.4194 2.14725 62.6776L8.86874 50.2428C8.95583 50.0817 9.06465 49.9333 9.19213 49.8018L52.5 5.12632L54.5612 3L55.131 2.41223C55.8907 1.62849 57.1386 1.59867 57.9349 2.34522Z" fill="url(#paint0_linear_0_1)"/>
<path d="M54.5612 3L55.131 2.41223C55.8907 1.62849 57.1386 1.59867 57.9349 2.34522L63.0226 7.11498C63.8356 7.8771 63.8689 9.15662 63.0967 9.96L62.7346 10.3368M54.5612 3L62.7346 10.3368M54.5612 3L52.5 5.12632M62.7346 10.3368L60.6553 12.5M60.6553 12.5L15.2214 59.7696C15.0747 59.9222 14.9048 60.0506 14.7178 60.1499L4.84497 65.3949C3.09645 66.3238 1.20575 64.4194 2.14725 62.6776L8.86874 50.2428C8.95583 50.0817 9.06465 49.9333 9.19213 49.8018L52.5 5.12632M60.6553 12.5L52.5 5.12632" stroke="black" stroke-width="2"/>
<defs>
<linearGradient id="paint0_linear_0_1" x1="61" y1="3" x2="4.5" y2="63.5" gradientUnits="userSpaceOnUse">
<stop stop-color="#008148"/>
<stop offset="0.16908" stop-color="#FFDC5D"/>
<stop offset="0.898682" stop-color="#FE7F2D"/>
<stop offset="0.96875" stop-color="#FE462D"/>
</linearGradient>
</defs>
</svg>